HIERARCHY
ROOT Hips
{
	OFFSET 0.000000 100.481300 0.000000
	CHANNELS 6 Xposition Yposition Zposition Xrotation Yrotation Zrotation
	JOINT Spine
	{
		OFFSET -0.279200 12.230698 -2.892100
		CHANNELS 3 Xrotation Yrotation Zrotation
		JOINT Spine1
		{
			OFFSET -0.325700 14.269203 -3.374200
			CHANNELS 3 Xrotation Yrotation Zrotation
			JOINT Spine2
			{
				OFFSET -0.372300 16.307602 -0.352600
				CHANNELS 3 Xrotation Yrotation Zrotation
				JOINT Neck
				{
					OFFSET -0.418800 17.814194 8.416900
					CHANNELS 3 Xrotation Yrotation Zrotation
					JOINT Head
					{
						OFFSET 0.000000 7.031097 3.806800
						CHANNELS 3 Xrotation Yrotation Zrotation
						JOINT HeadTop_End
						{
							OFFSET 0.000000 24.646606 12.978600
							CHANNELS 3 Xrotation Yrotation Zrotation
							End Site
							{
								OFFSET 0.000000 27.854965 0.000000
							}
						}
					}
				}
				JOINT LeftShoulder
				{
					OFFSET 16.952999 14.495407 -7.737500
					CHANNELS 3 Xrotation Yrotation Zrotation
					JOINT LeftArm
					{
						OFFSET 9.308998 -2.777710 0.208600
						CHANNELS 3 Xrotation Yrotation Zrotation
						JOINT LeftForeArm
						{
							OFFSET 29.972298 0.000000 0.000000
							CHANNELS 3 Xrotation Yrotation Zrotation
							JOINT LeftHand
							{
								OFFSET 26.026505 0.000000 0.000000
								CHANNELS 3 Xrotation Yrotation Zrotation
								JOINT LeftHandThumb1
								{
									OFFSET 12.240501 -7.147949 9.207150
									CHANNELS 3 Xrotation Yrotation Zrotation
									JOINT LeftHandThumb2
									{
										OFFSET 4.138618 -2.389435 2.389433
										CHANNELS 3 Xrotation Yrotation Zrotation
										JOINT LeftHandThumb3
										{
											OFFSET 2.726913 -1.574387 1.574386
											CHANNELS 3 Xrotation Yrotation Zrotation
											JOINT LeftHandThumb4
											{
												OFFSET 3.941010 -2.275345 2.275342
												CHANNELS 3 Xrotation Yrotation Zrotation
												End Site
												{
													OFFSET -0.005798 5.087799 0.009903
												}
											}
										}
									}
								}
								JOINT LeftHandIndex1
								{
									OFFSET 24.424698 -1.985611 5.953459
									CHANNELS 3 Xrotation Yrotation Zrotation
									JOINT LeftHandIndex2
									{
										OFFSET 6.426697 0.000000 0.000000
										CHANNELS 3 Xrotation Yrotation Zrotation
										JOINT LeftHandIndex3
										{
											OFFSET 5.337898 0.000000 0.000000
											CHANNELS 3 Xrotation Yrotation Zrotation
											JOINT LeftHandIndex4
											{
												OFFSET 4.409401 0.000000 0.000000
												CHANNELS 3 Xrotation Yrotation Zrotation
												End Site
												{
													OFFSET 0.000000 4.409363 0.014373
												}
											}
										}
									}
								}
								JOINT LeftHandMiddle1
								{
									OFFSET 23.810104 0.000000 0.000000
									CHANNELS 3 Xrotation Yrotation Zrotation
									JOINT LeftHandMiddle2
									{
										OFFSET 7.176498 0.000000 0.000000
										CHANNELS 3 Xrotation Yrotation Zrotation
										JOINT LeftHandMiddle3
										{
											OFFSET 6.774902 0.000000 0.000000
											CHANNELS 3 Xrotation Yrotation Zrotation
											JOINT LeftHandMiddle4
											{
												OFFSET 5.403328 0.000000 0.000000
												CHANNELS 3 Xrotation Yrotation Zrotation
												End Site
												{
													OFFSET -0.027702 5.403244 0.017414
												}
											}
										}
									}
								}
								JOINT LeftHandRing1
								{
									OFFSET 22.908401 -0.839279 -6.020567
									CHANNELS 3 Xrotation Yrotation Zrotation
									JOINT LeftHandRing2
									{
										OFFSET 6.337502 0.000000 0.000000
										CHANNELS 3 Xrotation Yrotation Zrotation
										JOINT LeftHandRing3
										{
											OFFSET 5.779297 0.000000 0.000000
											CHANNELS 3 Xrotation Yrotation Zrotation
											JOINT LeftHandRing4
											{
												OFFSET 4.965698 0.000000 0.000000
												CHANNELS 3 Xrotation Yrotation Zrotation
												End Site
												{
													OFFSET 0.000000 4.965668 0.016186
												}
											}
										}
									}
								}
								JOINT LeftHandPinky1
								{
									OFFSET 20.037003 -1.530319 -10.950146
									CHANNELS 3 Xrotation Yrotation Zrotation
									JOINT LeftHandPinky2
									{
										OFFSET 5.254700 0.000000 0.000000
										CHANNELS 3 Xrotation Yrotation Zrotation
										JOINT LeftHandPinky3
										{
											OFFSET 4.810204 0.000000 0.000000
											CHANNELS 3 Xrotation Yrotation Zrotation
											JOINT LeftHandPinky4
											{
												OFFSET 3.647202 0.000000 0.000000
												CHANNELS 3 Xrotation Yrotation Zrotation
												End Site
												{
													OFFSET 0.000000 3.647186 0.011889
												}
											}
										}
									}
								}
							}
						}
					}
				}
				JOINT RightShoulder
				{
					OFFSET -15.141001 14.495407 -7.737500
					CHANNELS 3 Xrotation Yrotation Zrotation
					JOINT RightArm
					{
						OFFSET -9.308998 -2.777710 0.208500
						CHANNELS 3 Xrotation Yrotation Zrotation
						JOINT RightForeArm
						{
							OFFSET -29.972300 0.000000 0.000000
							CHANNELS 3 Xrotation Yrotation Zrotation
							JOINT RightHand
							{
								OFFSET -26.026505 0.000000 0.000000
								CHANNELS 3 Xrotation Yrotation Zrotation
								JOINT RightHandThumb1
								{
									OFFSET -12.240601 -7.148026 9.207092
									CHANNELS 3 Xrotation Yrotation Zrotation
									JOINT RightHandThumb2
									{
										OFFSET -4.138618 -2.389435 2.389433
										CHANNELS 3 Xrotation Yrotation Zrotation
										JOINT RightHandThumb3
										{
											OFFSET -2.726974 -1.574417 1.574421
											CHANNELS 3 Xrotation Yrotation Zrotation
											JOINT RightHandThumb4
											{
												OFFSET -3.941010 -2.275345 2.275343
												CHANNELS 3 Xrotation Yrotation Zrotation
												End Site
												{
													OFFSET 0.005814 5.087799 0.009927
												}
											}
										}
									}
								}
								JOINT RightHandIndex1
								{
									OFFSET -24.424698 -1.985657 5.953444
									CHANNELS 3 Xrotation Yrotation Zrotation
									JOINT RightHandIndex2
									{
										OFFSET -6.426697 0.000000 0.000000
										CHANNELS 3 Xrotation Yrotation Zrotation
										JOINT RightHandIndex3
										{
											OFFSET -5.337898 0.000000 0.000000
											CHANNELS 3 Xrotation Yrotation Zrotation
											JOINT RightHandIndex4
											{
												OFFSET -4.409401 0.000000 0.000000
												CHANNELS 3 Xrotation Yrotation Zrotation
												End Site
												{
													OFFSET 0.000000 4.409363 0.014408
												}
											}
										}
									}
								}
								JOINT RightHandMiddle1
								{
									OFFSET -23.810097 0.000000 0.000000
									CHANNELS 3 Xrotation Yrotation Zrotation
									JOINT RightHandMiddle2
									{
										OFFSET -7.176498 0.000000 0.000000
										CHANNELS 3 Xrotation Yrotation Zrotation
										JOINT RightHandMiddle3
										{
											OFFSET -6.774902 0.000000 0.000000
											CHANNELS 3 Xrotation Yrotation Zrotation
											JOINT RightHandMiddle4
											{
												OFFSET -5.403328 0.000000 0.000000
												CHANNELS 3 Xrotation Yrotation Zrotation
												End Site
												{
													OFFSET 0.027702 5.403244 0.017457
												}
											}
										}
									}
								}
								JOINT RightHandRing1
								{
									OFFSET -22.908302 -0.839325 -6.020576
									CHANNELS 3 Xrotation Yrotation Zrotation
									JOINT RightHandRing2
									{
										OFFSET -6.337502 0.000000 0.000000
										CHANNELS 3 Xrotation Yrotation Zrotation
										JOINT RightHandRing3
										{
											OFFSET -5.779297 0.000000 0.000000
											CHANNELS 3 Xrotation Yrotation Zrotation
											JOINT RightHandRing4
											{
												OFFSET -4.965698 0.000000 0.000000
												CHANNELS 3 Xrotation Yrotation Zrotation
												End Site
												{
													OFFSET 0.000000 4.965668 0.016226
												}
											}
										}
									}
								}
								JOINT RightHandPinky1
								{
									OFFSET -20.037003 -1.530334 -10.950259
									CHANNELS 3 Xrotation Yrotation Zrotation
									JOINT RightHandPinky2
									{
										OFFSET -5.254700 0.000000 0.000000
										CHANNELS 3 Xrotation Yrotation Zrotation
										JOINT RightHandPinky3
										{
											OFFSET -4.810204 0.000000 0.000000
											CHANNELS 3 Xrotation Yrotation Zrotation
											JOINT RightHandPinky4
											{
												OFFSET -3.647202 0.000000 0.000000
												CHANNELS 3 Xrotation Yrotation Zrotation
												End Site
												{
													OFFSET 0.000000 3.647186 0.011917
												}
											}
										}
									}
								}
							}
						}
					}
				}
			}
		}
	}
	JOINT LeftUpLeg
	{
		OFFSET 15.427100 -6.655098 0.678600
		CHANNELS 3 Xrotation Yrotation Zrotation
		JOINT LeftLeg
		{
			OFFSET 4.081073 -39.591068 13.024000
			CHANNELS 3 Xrotation Yrotation Zrotation
			JOINT LeftFoot
			{
				OFFSET -4.081074 -37.707932 -15.979700
				CHANNELS 3 Xrotation Yrotation Zrotation
				JOINT LeftToeBase
				{
					OFFSET 5.346399 -15.068900 20.645000
					CHANNELS 3 Xrotation Yrotation Zrotation
					JOINT LeftToe_End
					{
						OFFSET 2.754700 0.931300 11.300900
						CHANNELS 3 Xrotation Yrotation Zrotation
						End Site
						{
							OFFSET 0.000000 11.669021 0.000000
						}
					}
				}
			}
		}
	}
	JOINT RightUpLeg
	{
		OFFSET -15.569500 -6.655098 0.678600
		CHANNELS 3 Xrotation Yrotation Zrotation
		JOINT RightLeg
		{
			OFFSET -4.081825 -39.591045 13.023800
			CHANNELS 3 Xrotation Yrotation Zrotation
			JOINT RightFoot
			{
				OFFSET 4.081824 -37.707954 -15.979600
				CHANNELS 3 Xrotation Yrotation Zrotation
				JOINT RightToeBase
				{
					OFFSET -5.346400 -15.068900 20.645000
					CHANNELS 3 Xrotation Yrotation Zrotation
					JOINT RightToe_End
					{
						OFFSET -2.754700 0.931300 11.300900
						CHANNELS 3 Xrotation Yrotation Zrotation
						End Site
						{
							OFFSET 0.000000 11.669021 0.000000
						}
					}
				}
			}
		}
	}
}
MOTION
Frames: 4
Frame Time: 0.033333
-3.662914 71.755554 2.807453 -6.101967 -43.213958 -3.000212 14.773849 -0.459561 -4.452310 29.514535 -1.721871 -6.705810 29.514531 -1.721867 -6.705803 1.865592 4.451100 -6.518803 2.113190 7.328644 1.554780 0.000000 -0.000000 -0.000000 -4.113454 1.671402 0.666189 -27.705793 8.108622 5.973638 -11.421885 -18.011675 -9.829113 -3.601817 -16.375551 34.301808 9.163575 4.814001 -5.499060 -0.335217 0.032563 0.783637 0.000010 0.000003 0.000000 0.000002 0.000001 -0.000000 -0.901794 -6.981015 -3.808429 0.033649 0.804226 -16.419078 -0.000001 0.000002 -0.000001 -0.000001 0.000001 -0.000002 1.947903 9.683025 -14.539931 -0.456374 -1.565401 -21.881203 0.000001 0.000000 0.000002 -0.000000 -0.000001 0.000000 2.605891 14.896812 -31.345418 -0.576811 -2.712270 -32.011751 -0.000001 -0.000003 0.000003 0.000001 -0.000004 0.000001 4.170611 18.495042 -34.987514 -0.706731 -5.788495 -39.373131 -0.000000 0.000001 0.000004 -0.000000 0.000001 0.000001 -5.378321 -12.971001 -1.368826 -23.271061 -14.249968 -1.670371 -4.396310 27.833101 3.351012 1.715187 5.883106 -37.145492 -8.895795 -4.903011 -0.383541 7.904968 -19.192417 -2.856707 0.000006 0.000006 -0.000008 0.000001 0.000001 -0.000001 -1.085556 -1.215511 4.525229 0.142061 -1.115670 16.942540 -0.000001 -0.000002 -0.000000 0.000003 -0.000002 0.000002 -0.663692 -2.903946 12.731518 -0.660636 1.813306 30.578812 -0.000001 0.000001 -0.000001 -0.000006 -0.000000 0.000001 2.423567 -7.404624 21.763191 -0.989755 3.764166 37.430950 -0.000000 0.000000 -0.000003 -0.000003 -0.000001 -0.000001 3.480978 -10.055152 24.322626 -1.458409 7.871875 41.091740 0.000000 0.000001 -0.000003 0.000003 0.000001 -0.000001 -79.029264 -9.075308 25.521314 118.799502 -9.940796 -4.790782 12.713228 -1.184974 -18.443732 -1.476144 -0.000008 -0.000007 -0.000003 0.000001 0.000001 -77.237152 -16.791731 -18.177415 127.071244 1.684027 -6.646529 31.945167 4.448583 22.072820 2.803037 0.000000 -0.000006 0.000000 -0.000001 -0.000000 
-3.717079 71.737801 2.728346 -6.061868 -43.220078 -2.896794 14.779696 -0.442351 -4.519770 29.526679 -1.690409 -6.753522 29.526679 -1.690389 -6.753534 1.850002 4.326007 -6.188707 2.115086 7.336851 1.366623 0.000001 -0.000000 0.000002 -4.108215 1.654910 0.665045 -27.693002 8.042974 5.596912 -11.291766 -17.320369 -9.793223 -3.554393 -16.306834 34.507147 8.860459 4.648268 -5.479770 -0.308031 0.021839 0.767448 0.000006 0.000004 -0.000004 -0.000001 -0.000001 0.000000 -0.903531 -6.972927 -3.790510 0.035080 0.809861 -16.369455 0.000000 0.000000 -0.000001 0.000002 -0.000001 0.000001 1.920747 9.552652 -14.497077 -0.438320 -1.521407 -21.437940 -0.000002 0.000001 -0.000001 -0.000001 -0.000002 0.000004 2.989177 14.748789 -30.982209 -0.562993 -2.689818 -31.578601 0.000003 -0.000002 0.000007 0.000001 0.000000 0.000002 4.291930 18.641290 -34.799346 -0.700927 -5.780863 -38.942972 -0.000000 -0.000001 0.000003 -0.000002 -0.000001 0.000001 -5.396158 -12.966023 -1.418377 -23.309486 -14.269483 -2.013785 -4.425201 28.011682 3.351604 0.234480 6.017981 -36.463071 -8.789052 -5.040821 -0.347377 7.968096 -19.341986 -2.854607 0.000002 0.000009 -0.000006 0.000005 0.000002 -0.000001 -1.093098 -1.204965 4.767331 0.138964 -1.106653 17.025696 -0.000000 0.000000 -0.000003 -0.000003 -0.000001 -0.000000 -0.674083 -2.870733 12.947228 -0.668582 1.827925 30.760279 -0.000005 0.000001 -0.000003 -0.000004 0.000000 -0.000000 2.459535 -7.393267 22.012270 -0.999913 3.776622 37.636255 0.000003 0.000001 -0.000002 -0.000000 0.000001 -0.000002 3.489377 -10.021014 24.662797 -1.470276 7.879480 41.339498 0.000004 0.000003 -0.000005 -0.000000 0.000002 -0.000001 -79.383355 -9.066543 25.642326 118.876055 -9.633727 -4.859231 13.150360 -1.259188 -18.004252 -1.474387 0.000008 -0.000003 -0.000004 0.000001 0.000001 -75.674446 -13.940399 -19.593864 126.199302 3.525897 -5.196492 31.713876 4.104889 20.293122 2.785072 0.000018 0.000023 0.000000 -0.000000 -0.000000 
-3.792151 71.735092 2.659664 -5.946187 -43.218111 -2.713082 14.788743 -0.435590 -4.577370 29.543997 -1.697837 -6.834163 29.544000 -1.697831 -6.834165 1.839369 4.179026 -5.809756 2.063213 7.320103 1.179900 0.000001 0.000000 -0.000001 -4.092870 1.607742 0.664786 -27.663118 7.847213 5.091974 -11.142631 -16.623695 -9.762970 -3.444436 -16.179405 34.810496 8.141077 4.300783 -5.445722 -0.230214 -0.007990 0.721505 0.000010 0.000003 -0.000001 0.000000 -0.000002 0.000001 -0.908830 -6.956318 -3.804423 0.037632 0.820683 -16.274377 0.000001 0.000002 -0.000000 0.000002 0.000000 -0.000001 1.856472 9.230129 -14.447956 -0.396717 -1.416843 -20.386112 0.000000 -0.000001 -0.000001 0.000002 0.000000 0.000006 3.934758 14.405735 -30.149428 -0.531014 -2.636205 -30.556504 -0.000002 0.000000 0.000006 -0.000000 0.000000 0.000002 4.573371 18.980165 -34.397495 -0.687469 -5.762252 -37.929734 -0.000002 -0.000002 0.000004 -0.000002 -0.000001 0.000004 -5.447090 -12.951834 -1.559660 -23.414464 -14.328132 -2.429121 -4.486002 28.201112 3.343248 -3.438343 6.226397 -35.778781 -8.496900 -5.330768 -0.211171 8.134354 -19.736270 -2.847355 0.000003 0.000011 -0.000010 -0.000000 -0.000000 0.000001 -1.114661 -1.178709 5.408743 0.130966 -1.084371 17.227904 -0.000001 0.000001 0.000000 -0.000002 0.000002 0.000000 -0.697579 -2.805862 13.515769 -0.685938 1.859731 31.150273 -0.000004 -0.000001 -0.000002 -0.000002 -0.000001 -0.000000 2.494965 -7.395116 22.563477 -1.022500 3.803372 38.093795 -0.000000 -0.000000 0.000001 0.000001 0.000002 -0.000001 3.497592 -9.887707 25.521608 -1.498107 7.893606 41.917434 0.000001 -0.000003 -0.000002 0.000001 -0.000001 -0.000001 -79.840322 -8.803670 25.638584 119.046960 -9.287077 -4.857965 13.802601 -1.316663 -17.579085 -1.469491 -0.000005 0.000003 -0.000002 -0.000000 0.000001 -74.337805 -11.441346 -20.947760 125.255410 5.181897 -3.886339 31.558978 3.739736 18.453809 2.733871 0.000018 -0.000014 0.000000 -0.000001 -0.000000 
-3.884093 71.741608 2.607127 -5.772954 -43.207435 -2.469737 14.799645 -0.442185 -4.623848 29.564139 -1.741834 -6.935851 29.564149 -1.741824 -6.935844 1.834437 4.030197 -5.433140 1.966595 7.281985 1.018780 0.000001 0.000000 -0.000002 -4.069424 1.537083 0.668583 -27.632838 7.544523 4.524146 -10.982041 -15.951736 -9.738888 -3.300672 -16.017536 35.117862 7.255572 3.940628 -5.425651 -0.113907 -0.052562 0.652975 0.000007 0.000004 -0.000002 0.000000 0.000002 0.000000 -0.917081 -6.938460 -3.895568 0.039834 0.830867 -16.182564 -0.000000 0.000002 0.000000 -0.000000 0.000000 -0.000001 1.777767 8.817241 -14.456029 -0.347606 -1.286879 -19.080970 -0.000002 -0.000001 -0.000003 0.000000 -0.000000 0.000000 5.150004 14.009631 -29.151698 -0.492885 -2.569311 -29.296946 0.000000 -0.000001 0.000006 0.000001 -0.000001 -0.000002 4.909114 19.385419 -33.956354 -0.671279 -5.738678 -36.683730 -0.000002 -0.000003 0.000003 -0.000004 -0.000000 0.000001 -5.523180 -12.930693 -1.770771 -23.558904 -14.420247 -2.862465 -4.565121 28.312333 3.325440 -8.193078 6.486465 -35.133936 -8.073104 -5.707516 0.005909 8.370315 -20.295648 -2.833944 -0.000000 0.000006 -0.000013 0.000001 -0.000002 -0.000002 -1.147247 -1.143038 6.321624 0.119874 -1.054206 17.497507 -0.000001 0.000000 -0.000001 -0.000000 0.000000 -0.000000 -0.731316 -2.719518 14.320497 -0.708471 1.901044 31.654279 0.000001 -0.000001 -0.000004 -0.000002 0.000001 -0.000000 2.531070 -7.410614 23.286140 -1.052470 3.837716 38.698622 -0.000001 0.000003 -0.000002 0.000001 0.000003 -0.000000 3.503662 -9.672512 26.726310 -1.536275 7.909725 42.701902 0.000002 0.000001 -0.000004 0.000002 -0.000001 0.000001 -80.308162 -8.397201 25.568497 119.277711 -8.972466 -4.825647 14.595901 -1.401214 -17.215096 -1.462150 -0.000002 0.000003 -0.000001 0.000001 -0.000001 -73.342182 -9.379221 -22.164140 124.361653 6.527660 -2.785038 31.458369 3.356264 16.621631 2.657352 0.000019 -0.000009 -0.000000 -0.000000 -0.000000 
